#!OML:ASF F:\VICON\USERDATA\INSTALL\rory3\rory3.ASF
:FULLY-SPECIFIED
:DEGREES
85
root 1.0376453307005236 17.85524748787151 35.65554028227723 -3.32920576156256 -2.6484664022502367 -2.9041577374299905
lfemur -0.05411197004997348 -0.5055945617662123 -15.992732750842729
ltibia 55.61136219598819
lfoot -7.508332514964393 -4.606362885001617
ltoes -11.422356870728091
rfemur -16.704185343599917 3.4336941009253104 27.348525629525046
rtibia 20.05240324691398
rfoot -0.9568220689330955 -7.16168380349415
rtoes 9.128491357052548
lowerback 10.599525227050279 -0.5048036008258776 0.6508953767901119
upperback -0.1452004462722325 -0.43182856851123813 2.4358635305528864
thorax -6.210833900851581 -0.21670355271261268 2.730796577203278
lowerneck -16.641140887580796 -3.2475850376978608 -1.4731537002120887
upperneck 21.74843492608077 -4.342666109683242 0.7949375661789403
head 9.711635578816374 -2.0703101747264263 -0.02063065144735829
lclavicle -2.7003079518243366e-15 -2.151714706254423e-15
lhumerus -32.35029901976696 5.0448466880015195 82.29783434982264
lradius 23.876956634920603
lwrist 11.124819033874921
lhand -30.09679365748647 19.69077994311139
lfingers 7.125020000000001
lthumb -3.2844673860643847 50.300158454846894
rclavicle -2.700307951764364e-15 -2.151714706212966e-15
rhumerus -29.991761262984742 -19.41315614644165 -76.13521465301598
rradius 26.774172429242185
rwrist 5.175664156497799
rhand -17.90839503191895 22.03703520524632
rfingers 7.125020000000001
rthumb 8.575793318265614 -7.218690121262074
86
root 1.0454194613618488 17.856156030149435 35.34627169692629 -3.473057191672549 -2.561052469809117 -2.8847562181990614
lfemur -0.7813397236648072 -0.5497950126763587 -16.134827617135773
ltibia 56.22082697298566
lfoot -8.307872036686586 -4.656061899543149
ltoes -13.932605608402334
rfemur -15.9691766285654 3.4808531378516783 27.383668672060114
rtibia 20.311933942323808
rfoot -0.8141035226218429 -7.068216798771461
rtoes 9.361392531024961
lowerback 10.571541034588055 -0.395561144614565 0.7891824601277149
upperback -0.10288739085130448 -0.3122431279013312 2.3638426512294157
thorax -6.178832627186291 -0.14554740831186 2.588815881332388
lowerneck -16.654478658545596 -3.2765945578112405 -1.477201392733925
upperneck 21.800935689738818 -4.393056802535901 0.7932576814966009
head 9.754256752806183 -2.087364639542058 -0.03641526773436701
lclavicle -2.700307951823199e-15 -2.151714706253882e-15
lhumerus -31.875421035350502 4.985277217756919 82.13444361989494
lradius 23.99418790930134
lwrist 11.098339216199195
lhand -30.17242993463353 19.457167126626665
lfingers 7.125020000000001
lthumb -3.363082833193002 50.05774707938815
rclavicle -2.70030795176445e-15 -2.1517147062132956e-15
rhumerus -29.815186507042803 -19.10384380792581 -76.25017201922952
rradius 26.755031834511968
rwrist 5.276269582632786
rhand -17.898836719821766 22.108973367566875
rfingers 7.125020000000001
rthumb 8.591237676733998 -7.252218850182121
87
root 1.0570112705557955 17.8603494538765 35.45925528264973 -3.5367000451003445 -2.309132065288999 -2.953452043902912
lfemur -1.3903090342250373 -0.6816990270898375 -16.241676898904945
ltibia 56.518701419703916
lfoot -9.131099277122557 -4.8027019931601815
ltoes -13.021712671421229
rfemur -15.099125595048775 3.5424410830460866 27.459861261912557
rtibia 20.61945413675414
rfoot -0.8446733890873643 -7.0723828462359295
rtoes 9.153400054213815
lowerback 10.529161221213926 -0.30637301537230144 1.0409111473611619
upperback -0.07792393165811631 -0.15489034883969527 2.306316294569119
thorax -6.167823241679443 -0.06419919089205947 2.3837636492491803
lowerneck -16.67308796093235 -3.3001457696204843 -1.4672823113906805
upperneck 21.77161604160183 -4.435395341721767 0.8075030624709197
head 9.752849749838525 -2.1019221028456645 -0.041681253865342965
lclavicle -2.7003079518159695e-15 -2.151714706249227e-15
lhumerus -31.53902783216217 4.595593562263395 81.89842492586789
lradius 24.16016250990391
lwrist 11.149092252672565
lhand -30.216171310698083 19.341331643215515
lfingers 7.125020000000001
lthumb -3.40817453530633 49.9577404589355
rclavicle -2.7003079517725143e-15 -2.151714706218989e-15
rhumerus -29.69056030879111 -18.859702542758185 -76.35938184175458
rradius 26.755914689570705
rwrist 5.388233491469899
rhand -17.935471223562867 22.097871304777115
rfingers 7.125020000000001
rthumb 8.561030605434285 -7.367922435600225
88
root 1.0619839931249282 17.86057570457532 35.29720344691409 -3.643705133604648 -2.0705787029462837 -3.02966397809562
lfemur -1.9372439189395294 -0.8372727834861384 -16.419425159050398
ltibia 56.63854395673154
lfoot -9.969341946366177 -4.994868899665484
ltoes -14.558661555375764
rfemur -14.178753780637953 3.630450733640741 27.5700093997856
rtibia 21.09809035968649
rfoot -1.0255223781486293 -7.205566614065197
rtoes 9.928406440647933
lowerback 10.51467294570628 -0.1987749197651104 1.2519750676957337
upperback -0.08448920935876769 0.011569897831619269 2.262426091977152
thorax -6.199989611210558 0.015882135137091496 2.145101928476221
lowerneck -16.630183555668918 -3.3194380555990635 -1.45862381771421
upperneck 21.709942546976524 -4.476371598852213 0.8321654024632215
head 9.719916037497152 -2.1195420113018266 -0.04027832460484013
lclavicle -2.7003079518162953e-15 -2.1517147062495974e-15
lhumerus -30.905211834617933 4.334110215897791 81.76541629736548
lradius 24.291188058636564
lwrist 11.226833010990775
lhand -30.246785591187983 19.236976818415528
lfingers 7.125020000000001
lthumb -3.449232904317753 49.81217392247964
rclavicle -2.700307951775366e-15 -2.151714706221085e-15
rhumerus -29.408423988147533 -18.540372431988953 -76.54655711440888
rradius 26.714842903981072
rwrist 5.545098877978668
rhand -17.91509991596204 22.09792118318479
rfingers 7.125020000000001
rthumb 8.63785292474181 -7.319618758415818
89
root 1.0709561869545516 17.858118104618224 35.372754846566124 -3.7610622070441826 -1.7851615685817328 -3.1111928110647677
lfemur -2.548694085702804 -0.9677591388981388 -16.604445827516813
ltibia 56.665008599598124
lfoot -10.90053735028682 -5.205499162095256
ltoes -15.120547062873392
rfemur -13.248887878154925 3.6767860437938236 27.67369974524709
rtibia 21.753147330047916
rfoot -1.1990379329685474 -7.381919832397194
rtoes 10.382836527556861
lowerback 10.544489924597924 -0.12656577916381334 1.3998404988398427
upperback -0.0563906866871273 0.1275810775484863 2.233764915548873
thorax -6.190454494777825 0.07867078249121573 1.9786971073580522
lowerneck -16.62424349740005 -3.3432679064634434 -1.4603924769384309
upperneck 21.653799613592852 -4.507279279644819 0.8536301915222106
head 9.687418694926384 -2.1315998705139876 -0.035529439779238475
lclavicle -2.700307951817061e-15 -2.151714706250371e-15
lhumerus -30.441509250955537 3.779015369395637 81.57252164918424
lradius 24.46638459513718
lwrist 11.36238050756615
lhand -30.286695946829596 19.142895672891118
lfingers 7.125020000000001
lthumb -3.515187419973646 49.623229454528406
rclavicle -2.700307951777935e-15 -2.1517147062231315e-15
rhumerus -29.07165966020242 -18.191258992072814 -76.64752350059422
rradius 26.614871180836996
rwrist 5.655148659132424
rhand -17.92178442774579 22.120056886985086
rfingers 7.125020000000001
rthumb 8.572702047958138 -7.469071304728825
90
root 1.061372981752998 17.87475595431312 35.73851531171362 -3.5243690500379192 -1.3574989568372293 -3.768045013549582
lfemur -3.5807927511300326 -1.038309081910475 -16.104103172095638
ltibia 56.675667825198715
lfoot -11.756023926845796 -5.2260736993789765
ltoes -14.261692840866003
rfemur -12.12957114581832 3.7914456785130914 28.23869435251921
rtibia 21.811521159520435
rfoot -1.3491734353454108 -7.575587018279978
rtoes 9.059807524578499
lowerback 10.557244237826826 -0.05319686246018843 2.032067164739805
upperback -0.055247371587810803 0.3407349391967413 2.2619664813228937
thorax -6.2141323957104895 0.19629493214982835 1.784311815550249
lowerneck -16.613004110127115 -3.3610560988364595 -1.4686770599554262
upperneck 21.577280322418957 -4.5341843412035585 0.8443433933686307
head 9.648140322020419 -2.142022309170427 -0.039384243147051384
lclavicle -2.7003079518134964e-15 -2.151714706248234e-15
lhumerus -29.75865284261605 3.4460055581825517 81.5256661399142
lradius 24.706022789988435
lwrist 11.201122218430612
lhand -30.11254296731442 19.11545928173855
lfingers 7.125020000000001
lthumb -3.355083405703395 49.631401483660795
rclavicle -2.7003079517777334e-15 -2.1517147062232996e-15
rhumerus -28.855177346577726 -17.932277525638384 -76.84284505071204
rradius 26.504446697034165
rwrist 5.820247519211531
rhand -17.977912680992322 22.00113009678819
rfingers 7.125020000000001
rthumb 8.566480334258689 -7.554159469974114
91
root 1.0474232276837283 17.90948549272031 36.040876973158596 -3.1034704198175347 -0.9033591563163474 -4.616970324696811
lfemur -4.745882313997299 -1.1138804475514232 -15.430012883274362
ltibia 56.76905184319075
lfoot -12.56521599037552 -5.104122386635387
ltoes -11.968853343967307
rfemur -10.827804237209836 3.9229493942180396 29.000673196173487
rtibia 21.19947583186073
rfoot -1.40943441697587 -7.728014971058216
rtoes 7.648488980383846
lowerback 10.517085194454811 0.043494559633352914 2.848275470150255
upperback -0.09951574957615789 0.6494849586912719 2.3597746710694296
thorax -6.289927114536051 0.3160067411473072 1.4340495218741394
lowerneck -16.614578186541735 -3.3740937518591054 -1.4581508754714059
upperneck 21.480447180234055 -4.565533471883643 0.8233100594514695
head 9.61892489548994 -2.1542685561771022 -0.06435409655236582
lclavicle -2.7003079518224133e-15 -2.151714706254665e-15
lhumerus -29.329156330863782 2.9203457508698847 81.35195152413031
lradius 25.04077619119777
lwrist 11.125721304787293
lhand -29.93142598713539 19.494036700772348
lfingers 7.125020000000001
lthumb -3.1165068197715597 50.08779787772825
rclavicle -2.700307951777507e-15 -2.1517147062234913e-15
rhumerus -28.641990890809303 -17.670360051416232 -77.05123309852463
rradius 26.359231903705904
rwrist 6.0088530669129465
rhand -17.901789710624897 22.142460574004215
rfingers 7.125020000000001
rthumb 8.59062073884207 -7.403585886940183
